# xmcd
#
# Track frame offsets:
# 150
# 17698
# 32536
# 45263
# 59843
# 77121
# 91728
# 108221
# 124805
# 141940
# 159843
# 175648
# 189609
# 207249
# 221711
# 235684
# 250708
# 262684
#
# Disc length: 3670 seconds
#
#
# Revision: 0
# Processed by: cddbd v1.5.2PL0 Copyright (c) Steve Scherf et al.
# Submitted via: FreeRIP 2.945 
#
DISCID=e30e5412
DTITLE=Henry-M1963 - Stormy5
DYEAR=1963
DGENRE=Jungle
TTITLE0=St 501
TTITLE1=St 502
TTITLE2=St 503
TTITLE3=St 504
TTITLE4=St 505
TTITLE5=St 506
TTITLE6=St 507
TTITLE7=St 508
TTITLE8=St 509
TTITLE9=St 510
TTITLE10=St 511
TTITLE11=St 512
TTITLE12=St 513
TTITLE13=St 514
TTITLE14=St 515
TTITLE15=St 516
TTITLE16=St 517
TTITLE17=St 518
EXTD=Stormy, Misty's Foal by Marguerite Henry\nread by John McDonough 5 CDs 1963\nrecorded books Jungle country
EXTT0=
EXTT1=
EXTT2=
EXTT3=
EXTT4=
EXTT5=
EXTT6=
EXTT7=
EXTT8=
EXTT9=
EXTT10=
EXTT11=
EXTT12=
EXTT13=
EXTT14=
EXTT15=
EXTT16=
EXTT17=
PLAYORDER=
